<mxfile host="Electron" agent="Mozilla/5.0 (Windows NT 10.0; Win64; x64) AppleWebKit/537.36 (KHTML, like Gecko) draw.io/26.2.2 Chrome/134.0.6998.178 Electron/35.1.2 Safari/537.36" version="26.2.2">
  <diagram id="C5RBs43oDa-KdzZeNtuy" name="Page-1">
    <mxGraphModel dx="1426" dy="841" grid="1" gridSize="10" guides="1" tooltips="1" connect="1" arrows="1" fold="1" page="1" pageScale="1" pageWidth="827" pageHeight="1169" math="0" shadow="0">
      <root>
        <mxCell id="WIyWlLk6GJQsqaUBKTNV-0" />
        <mxCell id="WIyWlLk6GJQsqaUBKTNV-1" parent="WIyWlLk6GJQsqaUBKTNV-0" />
        <mxCell id="D6qvsPv5HUMZqZDP2d3Z-5" value="" style="edgeStyle=orthogonalEdgeStyle;rounded=0;orthogonalLoop=1;jettySize=auto;html=1;entryX=0.5;entryY=0;entryDx=0;entryDy=0;" edge="1" parent="WIyWlLk6GJQsqaUBKTNV-1" source="D6qvsPv5HUMZqZDP2d3Z-0" target="D6qvsPv5HUMZqZDP2d3Z-22">
          <mxGeometry relative="1" as="geometry" />
        </mxCell>
        <mxCell id="D6qvsPv5HUMZqZDP2d3Z-0" value="Print results to screen" style="strokeWidth=2;html=1;shape=mxgraph.flowchart.start_1;whiteSpace=wrap;" vertex="1" parent="WIyWlLk6GJQsqaUBKTNV-1">
          <mxGeometry x="210" y="10" width="100" height="60" as="geometry" />
        </mxCell>
        <mxCell id="D6qvsPv5HUMZqZDP2d3Z-7" value="Yes" style="edgeStyle=orthogonalEdgeStyle;rounded=0;orthogonalLoop=1;jettySize=auto;html=1;entryX=0.5;entryY=0;entryDx=0;entryDy=0;entryPerimeter=0;" edge="1" parent="WIyWlLk6GJQsqaUBKTNV-1" source="D6qvsPv5HUMZqZDP2d3Z-4" target="D6qvsPv5HUMZqZDP2d3Z-9">
          <mxGeometry relative="1" as="geometry">
            <mxPoint x="310" y="170.0000000000001" as="targetPoint" />
          </mxGeometry>
        </mxCell>
        <mxCell id="D6qvsPv5HUMZqZDP2d3Z-16" value="No" style="edgeStyle=orthogonalEdgeStyle;rounded=0;orthogonalLoop=1;jettySize=auto;html=1;entryX=0;entryY=0.5;entryDx=0;entryDy=0;" edge="1" parent="WIyWlLk6GJQsqaUBKTNV-1" source="D6qvsPv5HUMZqZDP2d3Z-4" target="D6qvsPv5HUMZqZDP2d3Z-17">
          <mxGeometry relative="1" as="geometry">
            <mxPoint x="360" y="175.0000000000001" as="targetPoint" />
          </mxGeometry>
        </mxCell>
        <mxCell id="D6qvsPv5HUMZqZDP2d3Z-4" value="Save&lt;div&gt;button&amp;nbsp;&lt;/div&gt;&lt;div&gt;clicked?&lt;/div&gt;" style="rhombus;whiteSpace=wrap;html=1;strokeWidth=2;" vertex="1" parent="WIyWlLk6GJQsqaUBKTNV-1">
          <mxGeometry x="210" y="230" width="100" height="100" as="geometry" />
        </mxCell>
        <mxCell id="D6qvsPv5HUMZqZDP2d3Z-8" style="edgeStyle=orthogonalEdgeStyle;rounded=0;orthogonalLoop=1;jettySize=auto;html=1;exitX=0.5;exitY=0;exitDx=0;exitDy=0;entryX=0;entryY=0.5;entryDx=0;entryDy=0;" edge="1" parent="WIyWlLk6GJQsqaUBKTNV-1" source="D6qvsPv5HUMZqZDP2d3Z-13" target="D6qvsPv5HUMZqZDP2d3Z-22">
          <mxGeometry relative="1" as="geometry">
            <mxPoint x="190" y="90" as="sourcePoint" />
            <mxPoint x="150" y="150" as="targetPoint" />
            <Array as="points">
              <mxPoint x="90" y="150" />
            </Array>
          </mxGeometry>
        </mxCell>
        <mxCell id="D6qvsPv5HUMZqZDP2d3Z-12" value="No" style="edgeStyle=orthogonalEdgeStyle;rounded=0;orthogonalLoop=1;jettySize=auto;html=1;" edge="1" parent="WIyWlLk6GJQsqaUBKTNV-1" source="D6qvsPv5HUMZqZDP2d3Z-9" target="D6qvsPv5HUMZqZDP2d3Z-11">
          <mxGeometry relative="1" as="geometry" />
        </mxCell>
        <mxCell id="D6qvsPv5HUMZqZDP2d3Z-21" value="Yes" style="edgeStyle=orthogonalEdgeStyle;rounded=0;orthogonalLoop=1;jettySize=auto;html=1;entryX=1;entryY=0.5;entryDx=0;entryDy=0;" edge="1" parent="WIyWlLk6GJQsqaUBKTNV-1" source="D6qvsPv5HUMZqZDP2d3Z-9" target="D6qvsPv5HUMZqZDP2d3Z-13">
          <mxGeometry relative="1" as="geometry" />
        </mxCell>
        <mxCell id="D6qvsPv5HUMZqZDP2d3Z-9" value="Output&amp;nbsp;&lt;div&gt;directory&amp;nbsp;&lt;/div&gt;&lt;div&gt;exists?&lt;/div&gt;" style="strokeWidth=2;html=1;shape=mxgraph.flowchart.decision;whiteSpace=wrap;" vertex="1" parent="WIyWlLk6GJQsqaUBKTNV-1">
          <mxGeometry x="210" y="380" width="100" height="100" as="geometry" />
        </mxCell>
        <mxCell id="D6qvsPv5HUMZqZDP2d3Z-14" value="" style="edgeStyle=orthogonalEdgeStyle;rounded=0;orthogonalLoop=1;jettySize=auto;html=1;" edge="1" parent="WIyWlLk6GJQsqaUBKTNV-1" source="D6qvsPv5HUMZqZDP2d3Z-11" target="D6qvsPv5HUMZqZDP2d3Z-13">
          <mxGeometry relative="1" as="geometry" />
        </mxCell>
        <mxCell id="D6qvsPv5HUMZqZDP2d3Z-11" value="Create output directory" style="whiteSpace=wrap;html=1;strokeWidth=2;" vertex="1" parent="WIyWlLk6GJQsqaUBKTNV-1">
          <mxGeometry x="200" y="530" width="120" height="60" as="geometry" />
        </mxCell>
        <mxCell id="D6qvsPv5HUMZqZDP2d3Z-13" value="Save results to text file" style="whiteSpace=wrap;html=1;strokeWidth=2;" vertex="1" parent="WIyWlLk6GJQsqaUBKTNV-1">
          <mxGeometry x="30" y="250" width="120" height="60" as="geometry" />
        </mxCell>
        <mxCell id="D6qvsPv5HUMZqZDP2d3Z-19" value="Yes" style="edgeStyle=orthogonalEdgeStyle;rounded=0;orthogonalLoop=1;jettySize=auto;html=1;" edge="1" parent="WIyWlLk6GJQsqaUBKTNV-1" source="D6qvsPv5HUMZqZDP2d3Z-17" target="D6qvsPv5HUMZqZDP2d3Z-18">
          <mxGeometry relative="1" as="geometry" />
        </mxCell>
        <mxCell id="D6qvsPv5HUMZqZDP2d3Z-17" value="OK button clicked?" style="rhombus;whiteSpace=wrap;html=1;strokeWidth=2;" vertex="1" parent="WIyWlLk6GJQsqaUBKTNV-1">
          <mxGeometry x="363" y="230" width="100" height="100" as="geometry" />
        </mxCell>
        <mxCell id="D6qvsPv5HUMZqZDP2d3Z-18" value="Close results window" style="whiteSpace=wrap;html=1;strokeWidth=2;" vertex="1" parent="WIyWlLk6GJQsqaUBKTNV-1">
          <mxGeometry x="353" y="390" width="120" height="60" as="geometry" />
        </mxCell>
        <mxCell id="D6qvsPv5HUMZqZDP2d3Z-20" value="No" style="edgeStyle=orthogonalEdgeStyle;rounded=0;orthogonalLoop=1;jettySize=auto;html=1;entryX=1;entryY=0.5;entryDx=0;entryDy=0;" edge="1" parent="WIyWlLk6GJQsqaUBKTNV-1" source="D6qvsPv5HUMZqZDP2d3Z-17" target="D6qvsPv5HUMZqZDP2d3Z-22">
          <mxGeometry x="-0.6728" relative="1" as="geometry">
            <Array as="points">
              <mxPoint x="414" y="150" />
            </Array>
            <mxPoint as="offset" />
          </mxGeometry>
        </mxCell>
        <mxCell id="D6qvsPv5HUMZqZDP2d3Z-22" value="Input loop start" style="whiteSpace=wrap;html=1;strokeWidth=2;" vertex="1" parent="WIyWlLk6GJQsqaUBKTNV-1">
          <mxGeometry x="200" y="120" width="120" height="60" as="geometry" />
        </mxCell>
        <mxCell id="D6qvsPv5HUMZqZDP2d3Z-23" style="edgeStyle=orthogonalEdgeStyle;rounded=0;orthogonalLoop=1;jettySize=auto;html=1;entryX=0.502;entryY=0.045;entryDx=0;entryDy=0;entryPerimeter=0;" edge="1" parent="WIyWlLk6GJQsqaUBKTNV-1" source="D6qvsPv5HUMZqZDP2d3Z-22" target="D6qvsPv5HUMZqZDP2d3Z-4">
          <mxGeometry relative="1" as="geometry" />
        </mxCell>
      </root>
    </mxGraphModel>
  </diagram>
</mxfile>
